<svg xmlns="http://www.w3.org/2000/svg" xmlns:xlink="http://www.w3.org/1999/xlink" width="1000" zoomAndPan="magnify" viewBox="0 0 750 37.5" height="50" preserveAspectRatio="xMidYMid meet" version="1.0"><defs><g/><clipPath id="8c672b3649"><path d="M 288.140625 16.046875 L 294.332031 16.046875 L 294.332031 22.242188 L 288.140625 22.242188 Z M 288.140625 16.046875 " clip-rule="nonzero"/></clipPath><clipPath id="66bdc64227"><path d="M 291.234375 16.046875 C 289.527344 16.046875 288.140625 17.433594 288.140625 19.144531 C 288.140625 20.855469 289.527344 22.242188 291.234375 22.242188 C 292.945312 22.242188 294.332031 20.855469 294.332031 19.144531 C 294.332031 17.433594 292.945312 16.046875 291.234375 16.046875 " clip-rule="nonzero"/></clipPath><clipPath id="08bd6d0874"><path d="M 463.671875 16.046875 L 469.863281 16.046875 L 469.863281 22.242188 L 463.671875 22.242188 Z M 463.671875 16.046875 " clip-rule="nonzero"/></clipPath><clipPath id="57e179beeb"><path d="M 466.769531 16.046875 C 465.058594 16.046875 463.671875 17.433594 463.671875 19.144531 C 463.671875 20.855469 465.058594 22.242188 466.769531 22.242188 C 468.480469 22.242188 469.863281 20.855469 469.863281 19.144531 C 469.863281 17.433594 468.480469 16.046875 466.769531 16.046875 " clip-rule="nonzero"/></clipPath></defs><g clip-path="url(#8c672b3649)"><g clip-path="url(#66bdc64227)"><path fill="#858585" d="M 288.140625 16.046875 L 294.332031 16.046875 L 294.332031 22.242188 L 288.140625 22.242188 Z M 288.140625 16.046875 " fill-opacity="1" fill-rule="nonzero"/></g></g><g fill="#858585" fill-opacity="1"><g transform="translate(303.627943, 25.534539)"><g><path d="M 10.734375 -4.28125 C 10.734375 -3.40625 10.507812 -2.628906 10.0625 -1.953125 C 9.625 -1.273438 8.988281 -0.75 8.15625 -0.375 C 7.320312 0 6.34375 0.1875 5.21875 0.1875 C 4.28125 0.1875 3.488281 0.125 2.84375 0 C 2.207031 -0.132812 1.550781 -0.363281 0.875 -0.6875 L 0.875 -4.078125 C 1.59375 -3.710938 2.34375 -3.425781 3.125 -3.21875 C 3.914062 -3.007812 4.640625 -2.90625 5.296875 -2.90625 C 5.859375 -2.90625 6.269531 -3 6.53125 -3.1875 C 6.789062 -3.382812 6.921875 -3.640625 6.921875 -3.953125 C 6.921875 -4.140625 6.867188 -4.304688 6.765625 -4.453125 C 6.660156 -4.597656 6.488281 -4.742188 6.25 -4.890625 C 6.019531 -5.035156 5.398438 -5.335938 4.390625 -5.796875 C 3.460938 -6.210938 2.769531 -6.617188 2.3125 -7.015625 C 1.851562 -7.410156 1.515625 -7.859375 1.296875 -8.359375 C 1.078125 -8.867188 0.96875 -9.472656 0.96875 -10.171875 C 0.96875 -11.460938 1.4375 -12.472656 2.375 -13.203125 C 3.320312 -13.929688 4.617188 -14.296875 6.265625 -14.296875 C 7.722656 -14.296875 9.210938 -13.957031 10.734375 -13.28125 L 9.5625 -10.34375 C 8.25 -10.945312 7.113281 -11.25 6.15625 -11.25 C 5.664062 -11.25 5.304688 -11.160156 5.078125 -10.984375 C 4.847656 -10.804688 4.734375 -10.59375 4.734375 -10.34375 C 4.734375 -10.0625 4.875 -9.8125 5.15625 -9.59375 C 5.445312 -9.375 6.226562 -8.976562 7.5 -8.40625 C 8.707031 -7.851562 9.546875 -7.265625 10.015625 -6.640625 C 10.492188 -6.015625 10.734375 -5.226562 10.734375 -4.28125 Z M 10.734375 -4.28125 "/></g></g></g><g fill="#858585" fill-opacity="1"><g transform="translate(315.01458, 25.534539)"><g><path d="M 8.421875 0 L 7.703125 -1.453125 L 7.625 -1.453125 C 7.113281 -0.816406 6.59375 -0.382812 6.0625 -0.15625 C 5.539062 0.0703125 4.863281 0.1875 4.03125 0.1875 C 3 0.1875 2.1875 -0.117188 1.59375 -0.734375 C 1.007812 -1.347656 0.71875 -2.210938 0.71875 -3.328125 C 0.71875 -4.492188 1.117188 -5.359375 1.921875 -5.921875 C 2.734375 -6.492188 3.90625 -6.816406 5.4375 -6.890625 L 7.265625 -6.953125 L 7.265625 -7.109375 C 7.265625 -8.003906 6.820312 -8.453125 5.9375 -8.453125 C 5.132812 -8.453125 4.125 -8.179688 2.90625 -7.640625 L 1.8125 -10.125 C 3.082031 -10.78125 4.6875 -11.109375 6.625 -11.109375 C 8.03125 -11.109375 9.113281 -10.757812 9.875 -10.0625 C 10.644531 -9.375 11.03125 -8.40625 11.03125 -7.15625 L 11.03125 0 Z M 5.625 -2.46875 C 6.082031 -2.46875 6.472656 -2.609375 6.796875 -2.890625 C 7.117188 -3.179688 7.28125 -3.5625 7.28125 -4.03125 L 7.28125 -4.875 L 6.421875 -4.84375 C 5.179688 -4.789062 4.5625 -4.332031 4.5625 -3.46875 C 4.5625 -2.800781 4.914062 -2.46875 5.625 -2.46875 Z M 5.625 -2.46875 "/></g></g></g><g fill="#858585" fill-opacity="1"><g transform="translate(327.306754, 25.534539)"><g><path d="M 9.078125 0 L 8.609375 -1.359375 L 8.390625 -1.359375 C 8.066406 -0.859375 7.625 -0.472656 7.0625 -0.203125 C 6.5 0.0546875 5.84375 0.1875 5.09375 0.1875 C 3.882812 0.1875 2.945312 -0.15625 2.28125 -0.84375 C 1.613281 -1.539062 1.28125 -2.53125 1.28125 -3.8125 L 1.28125 -10.921875 L 5.046875 -10.921875 L 5.046875 -4.953125 C 5.046875 -4.242188 5.144531 -3.703125 5.34375 -3.328125 C 5.550781 -2.960938 5.882812 -2.78125 6.34375 -2.78125 C 7 -2.78125 7.460938 -3.035156 7.734375 -3.546875 C 8.015625 -4.054688 8.15625 -4.921875 8.15625 -6.140625 L 8.15625 -10.921875 L 11.921875 -10.921875 L 11.921875 0 Z M 4.546875 -11.953125 L 4.546875 -12.234375 C 5.535156 -13.296875 6.160156 -13.976562 6.421875 -14.28125 C 6.691406 -14.59375 6.914062 -14.875 7.09375 -15.125 L 11.21875 -15.125 L 11.21875 -14.921875 C 10.695312 -14.503906 9.988281 -13.976562 9.09375 -13.34375 C 8.195312 -12.707031 7.515625 -12.242188 7.046875 -11.953125 Z M 4.546875 -11.953125 "/></g></g></g><g fill="#858585" fill-opacity="1"><g transform="translate(340.523731, 25.534539)"><g><path d="M 4.6875 0.1875 C 3.914062 0.1875 3.238281 -0.03125 2.65625 -0.46875 C 2.070312 -0.914062 1.617188 -1.566406 1.296875 -2.421875 C 0.984375 -3.285156 0.828125 -4.289062 0.828125 -5.4375 C 0.828125 -7.21875 1.179688 -8.609375 1.890625 -9.609375 C 2.609375 -10.609375 3.59375 -11.109375 4.84375 -11.109375 C 5.445312 -11.109375 5.976562 -10.984375 6.4375 -10.734375 C 6.894531 -10.492188 7.316406 -10.085938 7.703125 -9.515625 L 7.78125 -9.515625 C 7.65625 -10.367188 7.59375 -11.222656 7.59375 -12.078125 L 7.59375 -15 L 11.390625 -15 L 11.390625 0 L 8.546875 0 L 7.734375 -1.375 L 7.59375 -1.375 C 6.945312 -0.332031 5.976562 0.1875 4.6875 0.1875 Z M 6.234375 -2.78125 C 6.835938 -2.78125 7.257812 -2.96875 7.5 -3.34375 C 7.75 -3.726562 7.882812 -4.316406 7.90625 -5.109375 L 7.90625 -5.40625 C 7.90625 -6.363281 7.765625 -7.046875 7.484375 -7.453125 C 7.210938 -7.867188 6.785156 -8.078125 6.203125 -8.078125 C 5.703125 -8.078125 5.316406 -7.84375 5.046875 -7.375 C 4.773438 -6.90625 4.640625 -6.242188 4.640625 -5.390625 C 4.640625 -4.535156 4.773438 -3.882812 5.046875 -3.4375 C 5.328125 -3 5.722656 -2.78125 6.234375 -2.78125 Z M 6.234375 -2.78125 "/></g></g></g><g fill="#858585" fill-opacity="1"><g transform="translate(353.210873, 25.534539)"><g><path d="M 6.578125 0.1875 C 4.753906 0.1875 3.335938 -0.289062 2.328125 -1.25 C 1.328125 -2.21875 0.828125 -3.597656 0.828125 -5.390625 C 0.828125 -7.234375 1.289062 -8.644531 2.21875 -9.625 C 3.15625 -10.613281 4.488281 -11.109375 6.21875 -11.109375 C 7.863281 -11.109375 9.132812 -10.675781 10.03125 -9.8125 C 10.925781 -8.957031 11.375 -7.726562 11.375 -6.125 L 11.375 -4.4375 L 4.640625 -4.4375 C 4.660156 -3.832031 4.878906 -3.351562 5.296875 -3 C 5.722656 -2.65625 6.300781 -2.484375 7.03125 -2.484375 C 7.6875 -2.484375 8.289062 -2.546875 8.84375 -2.671875 C 9.40625 -2.796875 10.007812 -3.007812 10.65625 -3.3125 L 10.65625 -0.609375 C 10.0625 -0.304688 9.445312 -0.0976562 8.8125 0.015625 C 8.1875 0.128906 7.441406 0.1875 6.578125 0.1875 Z M 6.34375 -8.546875 C 5.90625 -8.546875 5.535156 -8.40625 5.234375 -8.125 C 4.929688 -7.84375 4.757812 -7.40625 4.71875 -6.8125 L 7.953125 -6.8125 C 7.941406 -7.34375 7.789062 -7.765625 7.5 -8.078125 C 7.21875 -8.390625 6.832031 -8.546875 6.34375 -8.546875 Z M 6.34375 -8.546875 "/></g></g></g><g fill="#858585" fill-opacity="1"><g transform="translate(365.406713, 25.534539)"><g/></g></g><g fill="#858585" fill-opacity="1"><g transform="translate(370.531663, 25.534539)"><g><path d="M 6.578125 0.1875 C 4.753906 0.1875 3.335938 -0.289062 2.328125 -1.25 C 1.328125 -2.21875 0.828125 -3.597656 0.828125 -5.390625 C 0.828125 -7.234375 1.289062 -8.644531 2.21875 -9.625 C 3.15625 -10.613281 4.488281 -11.109375 6.21875 -11.109375 C 7.863281 -11.109375 9.132812 -10.675781 10.03125 -9.8125 C 10.925781 -8.957031 11.375 -7.726562 11.375 -6.125 L 11.375 -4.4375 L 4.640625 -4.4375 C 4.660156 -3.832031 4.878906 -3.351562 5.296875 -3 C 5.722656 -2.65625 6.300781 -2.484375 7.03125 -2.484375 C 7.6875 -2.484375 8.289062 -2.546875 8.84375 -2.671875 C 9.40625 -2.796875 10.007812 -3.007812 10.65625 -3.3125 L 10.65625 -0.609375 C 10.0625 -0.304688 9.445312 -0.0976562 8.8125 0.015625 C 8.1875 0.128906 7.441406 0.1875 6.578125 0.1875 Z M 6.34375 -8.546875 C 5.90625 -8.546875 5.535156 -8.40625 5.234375 -8.125 C 4.929688 -7.84375 4.757812 -7.40625 4.71875 -6.8125 L 7.953125 -6.8125 C 7.941406 -7.34375 7.789062 -7.765625 7.5 -8.078125 C 7.21875 -8.390625 6.832031 -8.546875 6.34375 -8.546875 Z M 6.34375 -8.546875 "/></g></g></g><g fill="#858585" fill-opacity="1"><g transform="translate(382.727503, 25.534539)"><g/></g></g><g fill="#858585" fill-opacity="1"><g transform="translate(387.852453, 25.534539)"><g><path d="M 1.515625 -14.09375 L 6.4375 -14.09375 C 8.351562 -14.09375 9.773438 -13.804688 10.703125 -13.234375 C 11.628906 -12.660156 12.09375 -11.773438 12.09375 -10.578125 C 12.09375 -9.785156 11.890625 -9.109375 11.484375 -8.546875 C 11.078125 -7.992188 10.546875 -7.640625 9.890625 -7.484375 L 9.890625 -7.375 C 10.765625 -7.144531 11.394531 -6.757812 11.78125 -6.21875 C 12.175781 -5.6875 12.375 -4.988281 12.375 -4.125 C 12.375 -2.84375 11.890625 -1.832031 10.921875 -1.09375 C 9.960938 -0.363281 8.65625 0 7 0 L 1.515625 0 Z M 5.328125 -8.6875 L 6.46875 -8.6875 C 7.019531 -8.6875 7.441406 -8.796875 7.734375 -9.015625 C 8.035156 -9.242188 8.1875 -9.578125 8.1875 -10.015625 C 8.1875 -10.804688 7.585938 -11.203125 6.390625 -11.203125 L 5.328125 -11.203125 Z M 5.328125 -5.890625 L 5.328125 -2.9375 L 6.671875 -2.9375 C 7.859375 -2.9375 8.453125 -3.4375 8.453125 -4.4375 C 8.453125 -4.90625 8.289062 -5.265625 7.96875 -5.515625 C 7.65625 -5.765625 7.195312 -5.890625 6.59375 -5.890625 Z M 5.328125 -5.890625 "/></g></g></g><g fill="#858585" fill-opacity="1"><g transform="translate(401.146497, 25.534539)"><g><path d="M 6.578125 0.1875 C 4.753906 0.1875 3.335938 -0.289062 2.328125 -1.25 C 1.328125 -2.21875 0.828125 -3.597656 0.828125 -5.390625 C 0.828125 -7.234375 1.289062 -8.644531 2.21875 -9.625 C 3.15625 -10.613281 4.488281 -11.109375 6.21875 -11.109375 C 7.863281 -11.109375 9.132812 -10.675781 10.03125 -9.8125 C 10.925781 -8.957031 11.375 -7.726562 11.375 -6.125 L 11.375 -4.4375 L 4.640625 -4.4375 C 4.660156 -3.832031 4.878906 -3.351562 5.296875 -3 C 5.722656 -2.65625 6.300781 -2.484375 7.03125 -2.484375 C 7.6875 -2.484375 8.289062 -2.546875 8.84375 -2.671875 C 9.40625 -2.796875 10.007812 -3.007812 10.65625 -3.3125 L 10.65625 -0.609375 C 10.0625 -0.304688 9.445312 -0.0976562 8.8125 0.015625 C 8.1875 0.128906 7.441406 0.1875 6.578125 0.1875 Z M 6.34375 -8.546875 C 5.90625 -8.546875 5.535156 -8.40625 5.234375 -8.125 C 4.929688 -7.84375 4.757812 -7.40625 4.71875 -6.8125 L 7.953125 -6.8125 C 7.941406 -7.34375 7.789062 -7.765625 7.5 -8.078125 C 7.21875 -8.390625 6.832031 -8.546875 6.34375 -8.546875 Z M 6.34375 -8.546875 "/></g></g></g><g fill="#858585" fill-opacity="1"><g transform="translate(413.342337, 25.534539)"><g><path d="M 5.0625 0 L 1.296875 0 L 1.296875 -15 L 5.0625 -15 Z M 5.0625 0 "/></g></g></g><g fill="#858585" fill-opacity="1"><g transform="translate(419.719625, 25.534539)"><g><path d="M 6.578125 0.1875 C 4.753906 0.1875 3.335938 -0.289062 2.328125 -1.25 C 1.328125 -2.21875 0.828125 -3.597656 0.828125 -5.390625 C 0.828125 -7.234375 1.289062 -8.644531 2.21875 -9.625 C 3.15625 -10.613281 4.488281 -11.109375 6.21875 -11.109375 C 7.863281 -11.109375 9.132812 -10.675781 10.03125 -9.8125 C 10.925781 -8.957031 11.375 -7.726562 11.375 -6.125 L 11.375 -4.4375 L 4.640625 -4.4375 C 4.660156 -3.832031 4.878906 -3.351562 5.296875 -3 C 5.722656 -2.65625 6.300781 -2.484375 7.03125 -2.484375 C 7.6875 -2.484375 8.289062 -2.546875 8.84375 -2.671875 C 9.40625 -2.796875 10.007812 -3.007812 10.65625 -3.3125 L 10.65625 -0.609375 C 10.0625 -0.304688 9.445312 -0.0976562 8.8125 0.015625 C 8.1875 0.128906 7.441406 0.1875 6.578125 0.1875 Z M 6.34375 -8.546875 C 5.90625 -8.546875 5.535156 -8.40625 5.234375 -8.125 C 4.929688 -7.84375 4.757812 -7.40625 4.71875 -6.8125 L 7.953125 -6.8125 C 7.941406 -7.34375 7.789062 -7.765625 7.5 -8.078125 C 7.21875 -8.390625 6.832031 -8.546875 6.34375 -8.546875 Z M 6.34375 -8.546875 "/></g></g></g><g fill="#858585" fill-opacity="1"><g transform="translate(431.915465, 25.534539)"><g><path d="M 9.515625 0 L 0.46875 0 L 0.46875 -2.15625 L 4.984375 -8.03125 L 0.734375 -8.03125 L 0.734375 -10.921875 L 9.296875 -10.921875 L 9.296875 -8.578125 L 4.96875 -2.875 L 9.515625 -2.875 Z M 9.515625 0 "/></g></g></g><g fill="#858585" fill-opacity="1"><g transform="translate(441.914898, 25.534539)"><g><path d="M 8.421875 0 L 7.703125 -1.453125 L 7.625 -1.453125 C 7.113281 -0.816406 6.59375 -0.382812 6.0625 -0.15625 C 5.539062 0.0703125 4.863281 0.1875 4.03125 0.1875 C 3 0.1875 2.1875 -0.117188 1.59375 -0.734375 C 1.007812 -1.347656 0.71875 -2.210938 0.71875 -3.328125 C 0.71875 -4.492188 1.117188 -5.359375 1.921875 -5.921875 C 2.734375 -6.492188 3.90625 -6.816406 5.4375 -6.890625 L 7.265625 -6.953125 L 7.265625 -7.109375 C 7.265625 -8.003906 6.820312 -8.453125 5.9375 -8.453125 C 5.132812 -8.453125 4.125 -8.179688 2.90625 -7.640625 L 1.8125 -10.125 C 3.082031 -10.78125 4.6875 -11.109375 6.625 -11.109375 C 8.03125 -11.109375 9.113281 -10.757812 9.875 -10.0625 C 10.644531 -9.375 11.03125 -8.40625 11.03125 -7.15625 L 11.03125 0 Z M 5.625 -2.46875 C 6.082031 -2.46875 6.472656 -2.609375 6.796875 -2.890625 C 7.117188 -3.179688 7.28125 -3.5625 7.28125 -4.03125 L 7.28125 -4.875 L 6.421875 -4.84375 C 5.179688 -4.789062 4.5625 -4.332031 4.5625 -3.46875 C 4.5625 -2.800781 4.914062 -2.46875 5.625 -2.46875 Z M 5.625 -2.46875 "/></g></g></g><g fill="#023281" fill-opacity="1"><g transform="translate(15.439209, 25.534539)"><g><path d="M 14.703125 -7.0625 C 14.703125 -4.6875 14.117188 -2.882812 12.953125 -1.65625 C 11.796875 -0.425781 10.097656 0.1875 7.859375 0.1875 C 5.640625 0.1875 3.941406 -0.429688 2.765625 -1.671875 C 1.585938 -2.910156 1 -4.710938 1 -7.078125 C 1 -9.421875 1.582031 -11.210938 2.75 -12.453125 C 3.925781 -13.691406 5.632812 -14.3125 7.875 -14.3125 C 10.113281 -14.3125 11.8125 -13.695312 12.96875 -12.46875 C 14.125 -11.238281 14.703125 -9.4375 14.703125 -7.0625 Z M 5.015625 -7.0625 C 5.015625 -4.34375 5.960938 -2.984375 7.859375 -2.984375 C 8.816406 -2.984375 9.53125 -3.3125 10 -3.96875 C 10.46875 -4.632812 10.703125 -5.664062 10.703125 -7.0625 C 10.703125 -8.46875 10.460938 -9.503906 9.984375 -10.171875 C 9.515625 -10.847656 8.8125 -11.1875 7.875 -11.1875 C 5.96875 -11.1875 5.015625 -9.8125 5.015625 -7.0625 Z M 5.015625 -7.0625 "/></g></g></g><g fill="#023281" fill-opacity="1"><g transform="translate(31.16086, 25.534539)"><g><path d="M 7.96875 -8.09375 L 5.640625 -8.09375 L 5.640625 0 L 1.875 0 L 1.875 -8.09375 L 0.4375 -8.09375 L 0.4375 -9.9375 L 1.953125 -10.875 L 1.953125 -11.046875 C 1.953125 -12.484375 2.242188 -13.515625 2.828125 -14.140625 C 3.421875 -14.773438 4.367188 -15.09375 5.671875 -15.09375 C 6.171875 -15.09375 6.640625 -15.054688 7.078125 -14.984375 C 7.523438 -14.910156 8.046875 -14.773438 8.640625 -14.578125 L 7.828125 -12.140625 C 7.367188 -12.265625 6.914062 -12.328125 6.46875 -12.328125 C 6.1875 -12.328125 5.976562 -12.238281 5.84375 -12.0625 C 5.707031 -11.882812 5.640625 -11.597656 5.640625 -11.203125 L 5.640625 -10.921875 L 7.96875 -10.921875 Z M 7.96875 -8.09375 "/></g></g></g><g fill="#023281" fill-opacity="1"><g transform="translate(39.310687, 25.534539)"><g><path d="M 6.578125 0.1875 C 4.753906 0.1875 3.335938 -0.289062 2.328125 -1.25 C 1.328125 -2.21875 0.828125 -3.597656 0.828125 -5.390625 C 0.828125 -7.234375 1.289062 -8.644531 2.21875 -9.625 C 3.15625 -10.613281 4.488281 -11.109375 6.21875 -11.109375 C 7.863281 -11.109375 9.132812 -10.675781 10.03125 -9.8125 C 10.925781 -8.957031 11.375 -7.726562 11.375 -6.125 L 11.375 -4.4375 L 4.640625 -4.4375 C 4.660156 -3.832031 4.878906 -3.351562 5.296875 -3 C 5.722656 -2.65625 6.300781 -2.484375 7.03125 -2.484375 C 7.6875 -2.484375 8.289062 -2.546875 8.84375 -2.671875 C 9.40625 -2.796875 10.007812 -3.007812 10.65625 -3.3125 L 10.65625 -0.609375 C 10.0625 -0.304688 9.445312 -0.0976562 8.8125 0.015625 C 8.1875 0.128906 7.441406 0.1875 6.578125 0.1875 Z M 6.34375 -8.546875 C 5.90625 -8.546875 5.535156 -8.40625 5.234375 -8.125 C 4.929688 -7.84375 4.757812 -7.40625 4.71875 -6.8125 L 7.953125 -6.8125 C 7.941406 -7.34375 7.789062 -7.765625 7.5 -8.078125 C 7.21875 -8.390625 6.832031 -8.546875 6.34375 -8.546875 Z M 6.34375 -8.546875 "/></g></g></g><g fill="#023281" fill-opacity="1"><g transform="translate(51.506527, 25.534539)"><g><path d="M 7.890625 -11.109375 C 8.222656 -11.109375 8.535156 -11.082031 8.828125 -11.03125 L 9.03125 -11 L 8.703125 -7.4375 C 8.390625 -7.507812 7.960938 -7.546875 7.421875 -7.546875 C 6.597656 -7.546875 6 -7.359375 5.625 -6.984375 C 5.25 -6.609375 5.0625 -6.070312 5.0625 -5.375 L 5.0625 0 L 1.296875 0 L 1.296875 -10.921875 L 4.109375 -10.921875 L 4.6875 -9.171875 L 4.875 -9.171875 C 5.1875 -9.753906 5.625 -10.222656 6.1875 -10.578125 C 6.75 -10.929688 7.316406 -11.109375 7.890625 -11.109375 Z M 7.890625 -11.109375 "/></g></g></g><g fill="#023281" fill-opacity="1"><g transform="translate(60.764191, 25.534539)"><g><path d="M 6.65625 -2.78125 C 7.15625 -2.78125 7.757812 -2.90625 8.46875 -3.15625 L 8.46875 -0.421875 C 7.957031 -0.203125 7.472656 -0.046875 7.015625 0.046875 C 6.554688 0.140625 6.019531 0.1875 5.40625 0.1875 C 4.132812 0.1875 3.21875 -0.117188 2.65625 -0.734375 C 2.101562 -1.359375 1.828125 -2.3125 1.828125 -3.59375 L 1.828125 -8.09375 L 0.515625 -8.09375 L 0.515625 -9.625 L 2.1875 -10.8125 L 3.15625 -13.109375 L 5.625 -13.109375 L 5.625 -10.921875 L 8.3125 -10.921875 L 8.3125 -8.09375 L 5.625 -8.09375 L 5.625 -3.84375 C 5.625 -3.132812 5.96875 -2.78125 6.65625 -2.78125 Z M 6.65625 -2.78125 "/></g></g></g><g fill="#023281" fill-opacity="1"><g transform="translate(69.838821, 25.534539)"><g><path d="M 8.421875 0 L 7.703125 -1.453125 L 7.625 -1.453125 C 7.113281 -0.816406 6.59375 -0.382812 6.0625 -0.15625 C 5.539062 0.0703125 4.863281 0.1875 4.03125 0.1875 C 3 0.1875 2.1875 -0.117188 1.59375 -0.734375 C 1.007812 -1.347656 0.71875 -2.210938 0.71875 -3.328125 C 0.71875 -4.492188 1.117188 -5.359375 1.921875 -5.921875 C 2.734375 -6.492188 3.90625 -6.816406 5.4375 -6.890625 L 7.265625 -6.953125 L 7.265625 -7.109375 C 7.265625 -8.003906 6.820312 -8.453125 5.9375 -8.453125 C 5.132812 -8.453125 4.125 -8.179688 2.90625 -7.640625 L 1.8125 -10.125 C 3.082031 -10.78125 4.6875 -11.109375 6.625 -11.109375 C 8.03125 -11.109375 9.113281 -10.757812 9.875 -10.0625 C 10.644531 -9.375 11.03125 -8.40625 11.03125 -7.15625 L 11.03125 0 Z M 5.625 -2.46875 C 6.082031 -2.46875 6.472656 -2.609375 6.796875 -2.890625 C 7.117188 -3.179688 7.28125 -3.5625 7.28125 -4.03125 L 7.28125 -4.875 L 6.421875 -4.84375 C 5.179688 -4.789062 4.5625 -4.332031 4.5625 -3.46875 C 4.5625 -2.800781 4.914062 -2.46875 5.625 -2.46875 Z M 5.625 -2.46875 "/></g></g></g><g fill="#023281" fill-opacity="1"><g transform="translate(82.130995, 25.534539)"><g><path d="M 9.734375 -3.359375 C 9.734375 -2.179688 9.332031 -1.296875 8.53125 -0.703125 C 7.738281 -0.109375 6.597656 0.1875 5.109375 0.1875 C 4.296875 0.1875 3.585938 0.144531 2.984375 0.0625 C 2.390625 -0.0195312 1.785156 -0.179688 1.171875 -0.421875 L 1.171875 -3.4375 C 1.753906 -3.175781 2.394531 -2.960938 3.09375 -2.796875 C 3.789062 -2.628906 4.410156 -2.546875 4.953125 -2.546875 C 5.765625 -2.546875 6.171875 -2.734375 6.171875 -3.109375 C 6.171875 -3.296875 6.054688 -3.460938 5.828125 -3.609375 C 5.609375 -3.765625 4.945312 -4.0625 3.84375 -4.5 C 2.84375 -4.90625 2.140625 -5.367188 1.734375 -5.890625 C 1.335938 -6.421875 1.140625 -7.085938 1.140625 -7.890625 C 1.140625 -8.910156 1.53125 -9.703125 2.3125 -10.265625 C 3.101562 -10.828125 4.210938 -11.109375 5.640625 -11.109375 C 6.359375 -11.109375 7.035156 -11.03125 7.671875 -10.875 C 8.304688 -10.71875 8.960938 -10.488281 9.640625 -10.1875 L 8.625 -7.75 C 8.125 -7.976562 7.59375 -8.171875 7.03125 -8.328125 C 6.476562 -8.484375 6.023438 -8.5625 5.671875 -8.5625 C 5.046875 -8.5625 4.734375 -8.410156 4.734375 -8.109375 C 4.734375 -7.921875 4.84375 -7.757812 5.0625 -7.625 C 5.28125 -7.5 5.898438 -7.234375 6.921875 -6.828125 C 7.691406 -6.515625 8.265625 -6.207031 8.640625 -5.90625 C 9.015625 -5.601562 9.289062 -5.25 9.46875 -4.84375 C 9.644531 -4.4375 9.734375 -3.941406 9.734375 -3.359375 Z M 9.734375 -3.359375 "/></g></g></g><g fill="#023281" fill-opacity="1"><g transform="translate(92.650629, 25.534539)"><g/></g></g><g fill="#023281" fill-opacity="1"><g transform="translate(97.77558, 25.534539)"><g><path d="M 4.6875 0.1875 C 3.914062 0.1875 3.238281 -0.03125 2.65625 -0.46875 C 2.070312 -0.914062 1.617188 -1.566406 1.296875 -2.421875 C 0.984375 -3.285156 0.828125 -4.289062 0.828125 -5.4375 C 0.828125 -7.21875 1.179688 -8.609375 1.890625 -9.609375 C 2.609375 -10.609375 3.59375 -11.109375 4.84375 -11.109375 C 5.445312 -11.109375 5.976562 -10.984375 6.4375 -10.734375 C 6.894531 -10.492188 7.316406 -10.085938 7.703125 -9.515625 L 7.78125 -9.515625 C 7.65625 -10.367188 7.59375 -11.222656 7.59375 -12.078125 L 7.59375 -15 L 11.390625 -15 L 11.390625 0 L 8.546875 0 L 7.734375 -1.375 L 7.59375 -1.375 C 6.945312 -0.332031 5.976562 0.1875 4.6875 0.1875 Z M 6.234375 -2.78125 C 6.835938 -2.78125 7.257812 -2.96875 7.5 -3.34375 C 7.75 -3.726562 7.882812 -4.316406 7.90625 -5.109375 L 7.90625 -5.40625 C 7.90625 -6.363281 7.765625 -7.046875 7.484375 -7.453125 C 7.210938 -7.867188 6.785156 -8.078125 6.203125 -8.078125 C 5.703125 -8.078125 5.316406 -7.84375 5.046875 -7.375 C 4.773438 -6.90625 4.640625 -6.242188 4.640625 -5.390625 C 4.640625 -4.535156 4.773438 -3.882812 5.046875 -3.4375 C 5.328125 -3 5.722656 -2.78125 6.234375 -2.78125 Z M 6.234375 -2.78125 "/></g></g></g><g fill="#023281" fill-opacity="1"><g transform="translate(110.462721, 25.534539)"><g><path d="M 11.734375 -5.484375 C 11.734375 -3.691406 11.25 -2.296875 10.28125 -1.296875 C 9.320312 -0.304688 7.976562 0.1875 6.25 0.1875 C 4.59375 0.1875 3.273438 -0.320312 2.296875 -1.34375 C 1.316406 -2.363281 0.828125 -3.742188 0.828125 -5.484375 C 0.828125 -7.265625 1.304688 -8.644531 2.265625 -9.625 C 3.222656 -10.613281 4.570312 -11.109375 6.3125 -11.109375 C 7.382812 -11.109375 8.332031 -10.878906 9.15625 -10.421875 C 9.976562 -9.960938 10.613281 -9.304688 11.0625 -8.453125 C 11.507812 -7.609375 11.734375 -6.617188 11.734375 -5.484375 Z M 4.65625 -5.484375 C 4.65625 -4.546875 4.78125 -3.832031 5.03125 -3.34375 C 5.28125 -2.851562 5.703125 -2.609375 6.296875 -2.609375 C 6.878906 -2.609375 7.289062 -2.851562 7.53125 -3.34375 C 7.769531 -3.832031 7.890625 -4.546875 7.890625 -5.484375 C 7.890625 -6.410156 7.765625 -7.113281 7.515625 -7.59375 C 7.273438 -8.070312 6.859375 -8.3125 6.265625 -8.3125 C 5.691406 -8.3125 5.28125 -8.070312 5.03125 -7.59375 C 4.78125 -7.125 4.65625 -6.421875 4.65625 -5.484375 Z M 4.65625 -5.484375 "/></g></g></g><g fill="#023281" fill-opacity="1"><g transform="translate(123.034263, 25.534539)"><g/></g></g><g fill="#023281" fill-opacity="1"><g transform="translate(128.159213, 25.534539)"><g><path d="M 4.6875 0.1875 C 3.914062 0.1875 3.238281 -0.03125 2.65625 -0.46875 C 2.070312 -0.914062 1.617188 -1.566406 1.296875 -2.421875 C 0.984375 -3.285156 0.828125 -4.289062 0.828125 -5.4375 C 0.828125 -7.21875 1.179688 -8.609375 1.890625 -9.609375 C 2.609375 -10.609375 3.59375 -11.109375 4.84375 -11.109375 C 5.445312 -11.109375 5.976562 -10.984375 6.4375 -10.734375 C 6.894531 -10.492188 7.316406 -10.085938 7.703125 -9.515625 L 7.78125 -9.515625 C 7.65625 -10.367188 7.59375 -11.222656 7.59375 -12.078125 L 7.59375 -15 L 11.390625 -15 L 11.390625 0 L 8.546875 0 L 7.734375 -1.375 L 7.59375 -1.375 C 6.945312 -0.332031 5.976562 0.1875 4.6875 0.1875 Z M 6.234375 -2.78125 C 6.835938 -2.78125 7.257812 -2.96875 7.5 -3.34375 C 7.75 -3.726562 7.882812 -4.316406 7.90625 -5.109375 L 7.90625 -5.40625 C 7.90625 -6.363281 7.765625 -7.046875 7.484375 -7.453125 C 7.210938 -7.867188 6.785156 -8.078125 6.203125 -8.078125 C 5.703125 -8.078125 5.316406 -7.84375 5.046875 -7.375 C 4.773438 -6.90625 4.640625 -6.242188 4.640625 -5.390625 C 4.640625 -4.535156 4.773438 -3.882812 5.046875 -3.4375 C 5.328125 -3 5.722656 -2.78125 6.234375 -2.78125 Z M 6.234375 -2.78125 "/></g></g></g><g fill="#023281" fill-opacity="1"><g transform="translate(140.846355, 25.534539)"><g><path d="M 5.09375 0 L 1.3125 0 L 1.3125 -10.921875 L 5.09375 -10.921875 Z M 1.21875 -13.640625 C 1.21875 -14.203125 1.375 -14.617188 1.6875 -14.890625 C 2.007812 -15.171875 2.519531 -15.3125 3.21875 -15.3125 C 3.914062 -15.3125 4.425781 -15.171875 4.75 -14.890625 C 5.070312 -14.609375 5.234375 -14.191406 5.234375 -13.640625 C 5.234375 -12.535156 4.5625 -11.984375 3.21875 -11.984375 C 1.882812 -11.984375 1.21875 -12.535156 1.21875 -13.640625 Z M 1.21875 -13.640625 "/></g></g></g><g fill="#023281" fill-opacity="1"><g transform="translate(147.262176, 25.534539)"><g><path d="M 8.421875 0 L 7.703125 -1.453125 L 7.625 -1.453125 C 7.113281 -0.816406 6.59375 -0.382812 6.0625 -0.15625 C 5.539062 0.0703125 4.863281 0.1875 4.03125 0.1875 C 3 0.1875 2.1875 -0.117188 1.59375 -0.734375 C 1.007812 -1.347656 0.71875 -2.210938 0.71875 -3.328125 C 0.71875 -4.492188 1.117188 -5.359375 1.921875 -5.921875 C 2.734375 -6.492188 3.90625 -6.816406 5.4375 -6.890625 L 7.265625 -6.953125 L 7.265625 -7.109375 C 7.265625 -8.003906 6.820312 -8.453125 5.9375 -8.453125 C 5.132812 -8.453125 4.125 -8.179688 2.90625 -7.640625 L 1.8125 -10.125 C 3.082031 -10.78125 4.6875 -11.109375 6.625 -11.109375 C 8.03125 -11.109375 9.113281 -10.757812 9.875 -10.0625 C 10.644531 -9.375 11.03125 -8.40625 11.03125 -7.15625 L 11.03125 0 Z M 5.625 -2.46875 C 6.082031 -2.46875 6.472656 -2.609375 6.796875 -2.890625 C 7.117188 -3.179688 7.28125 -3.5625 7.28125 -4.03125 L 7.28125 -4.875 L 6.421875 -4.84375 C 5.179688 -4.789062 4.5625 -4.332031 4.5625 -3.46875 C 4.5625 -2.800781 4.914062 -2.46875 5.625 -2.46875 Z M 5.625 -2.46875 "/></g></g></g><g fill="#023281" fill-opacity="1"><g transform="translate(159.55435, 25.534539)"><g/></g></g><g fill="#023281" fill-opacity="1"><g transform="translate(164.6793, 25.534539)"><g><path d="M 8.1875 0 L 8.1875 -5.953125 C 8.1875 -6.679688 8.082031 -7.226562 7.875 -7.59375 C 7.664062 -7.96875 7.332031 -8.15625 6.875 -8.15625 C 6.238281 -8.15625 5.773438 -7.898438 5.484375 -7.390625 C 5.203125 -6.878906 5.0625 -6.007812 5.0625 -4.78125 L 5.0625 0 L 1.296875 0 L 1.296875 -10.921875 L 4.140625 -10.921875 L 4.609375 -9.5625 L 4.84375 -9.5625 C 5.15625 -10.082031 5.597656 -10.46875 6.171875 -10.71875 C 6.742188 -10.976562 7.394531 -11.109375 8.125 -11.109375 C 9.332031 -11.109375 10.269531 -10.757812 10.9375 -10.0625 C 11.613281 -9.363281 11.953125 -8.378906 11.953125 -7.109375 L 11.953125 0 Z M 8.1875 0 "/></g></g></g><g fill="#023281" fill-opacity="1"><g transform="translate(177.896277, 25.534539)"><g><path d="M 11.734375 -5.484375 C 11.734375 -3.691406 11.25 -2.296875 10.28125 -1.296875 C 9.320312 -0.304688 7.976562 0.1875 6.25 0.1875 C 4.59375 0.1875 3.273438 -0.320312 2.296875 -1.34375 C 1.316406 -2.363281 0.828125 -3.742188 0.828125 -5.484375 C 0.828125 -7.265625 1.304688 -8.644531 2.265625 -9.625 C 3.222656 -10.613281 4.570312 -11.109375 6.3125 -11.109375 C 7.382812 -11.109375 8.332031 -10.878906 9.15625 -10.421875 C 9.976562 -9.960938 10.613281 -9.304688 11.0625 -8.453125 C 11.507812 -7.609375 11.734375 -6.617188 11.734375 -5.484375 Z M 4.65625 -5.484375 C 4.65625 -4.546875 4.78125 -3.832031 5.03125 -3.34375 C 5.28125 -2.851562 5.703125 -2.609375 6.296875 -2.609375 C 6.878906 -2.609375 7.289062 -2.851562 7.53125 -3.34375 C 7.769531 -3.832031 7.890625 -4.546875 7.890625 -5.484375 C 7.890625 -6.410156 7.765625 -7.113281 7.515625 -7.59375 C 7.273438 -8.070312 6.859375 -8.3125 6.265625 -8.3125 C 5.691406 -8.3125 5.28125 -8.070312 5.03125 -7.59375 C 4.78125 -7.125 4.65625 -6.421875 4.65625 -5.484375 Z M 4.65625 -5.484375 "/></g></g></g><g fill="#023281" fill-opacity="1"><g transform="translate(190.467818, 25.534539)"><g/></g></g><g fill="#023281" fill-opacity="1"><g transform="translate(195.592768, 25.534539)"><g><path d="M 10.734375 -4.28125 C 10.734375 -3.40625 10.507812 -2.628906 10.0625 -1.953125 C 9.625 -1.273438 8.988281 -0.75 8.15625 -0.375 C 7.320312 0 6.34375 0.1875 5.21875 0.1875 C 4.28125 0.1875 3.488281 0.125 2.84375 0 C 2.207031 -0.132812 1.550781 -0.363281 0.875 -0.6875 L 0.875 -4.078125 C 1.59375 -3.710938 2.34375 -3.425781 3.125 -3.21875 C 3.914062 -3.007812 4.640625 -2.90625 5.296875 -2.90625 C 5.859375 -2.90625 6.269531 -3 6.53125 -3.1875 C 6.789062 -3.382812 6.921875 -3.640625 6.921875 -3.953125 C 6.921875 -4.140625 6.867188 -4.304688 6.765625 -4.453125 C 6.660156 -4.597656 6.488281 -4.742188 6.25 -4.890625 C 6.019531 -5.035156 5.398438 -5.335938 4.390625 -5.796875 C 3.460938 -6.210938 2.769531 -6.617188 2.3125 -7.015625 C 1.851562 -7.410156 1.515625 -7.859375 1.296875 -8.359375 C 1.078125 -8.867188 0.96875 -9.472656 0.96875 -10.171875 C 0.96875 -11.460938 1.4375 -12.472656 2.375 -13.203125 C 3.320312 -13.929688 4.617188 -14.296875 6.265625 -14.296875 C 7.722656 -14.296875 9.210938 -13.957031 10.734375 -13.28125 L 9.5625 -10.34375 C 8.25 -10.945312 7.113281 -11.25 6.15625 -11.25 C 5.664062 -11.25 5.304688 -11.160156 5.078125 -10.984375 C 4.847656 -10.804688 4.734375 -10.59375 4.734375 -10.34375 C 4.734375 -10.0625 4.875 -9.8125 5.15625 -9.59375 C 5.445312 -9.375 6.226562 -8.976562 7.5 -8.40625 C 8.707031 -7.851562 9.546875 -7.265625 10.015625 -6.640625 C 10.492188 -6.015625 10.734375 -5.226562 10.734375 -4.28125 Z M 10.734375 -4.28125 "/></g></g></g><g fill="#023281" fill-opacity="1"><g transform="translate(206.979417, 25.534539)"><g><path d="M 6.578125 0.1875 C 4.753906 0.1875 3.335938 -0.289062 2.328125 -1.25 C 1.328125 -2.21875 0.828125 -3.597656 0.828125 -5.390625 C 0.828125 -7.234375 1.289062 -8.644531 2.21875 -9.625 C 3.15625 -10.613281 4.488281 -11.109375 6.21875 -11.109375 C 7.863281 -11.109375 9.132812 -10.675781 10.03125 -9.8125 C 10.925781 -8.957031 11.375 -7.726562 11.375 -6.125 L 11.375 -4.4375 L 4.640625 -4.4375 C 4.660156 -3.832031 4.878906 -3.351562 5.296875 -3 C 5.722656 -2.65625 6.300781 -2.484375 7.03125 -2.484375 C 7.6875 -2.484375 8.289062 -2.546875 8.84375 -2.671875 C 9.40625 -2.796875 10.007812 -3.007812 10.65625 -3.3125 L 10.65625 -0.609375 C 10.0625 -0.304688 9.445312 -0.0976562 8.8125 0.015625 C 8.1875 0.128906 7.441406 0.1875 6.578125 0.1875 Z M 6.34375 -8.546875 C 5.90625 -8.546875 5.535156 -8.40625 5.234375 -8.125 C 4.929688 -7.84375 4.757812 -7.40625 4.71875 -6.8125 L 7.953125 -6.8125 C 7.941406 -7.34375 7.789062 -7.765625 7.5 -8.078125 C 7.21875 -8.390625 6.832031 -8.546875 6.34375 -8.546875 Z M 6.34375 -8.546875 "/></g></g></g><g fill="#023281" fill-opacity="1"><g transform="translate(219.175257, 25.534539)"><g><path d="M 6.65625 -2.78125 C 7.15625 -2.78125 7.757812 -2.90625 8.46875 -3.15625 L 8.46875 -0.421875 C 7.957031 -0.203125 7.472656 -0.046875 7.015625 0.046875 C 6.554688 0.140625 6.019531 0.1875 5.40625 0.1875 C 4.132812 0.1875 3.21875 -0.117188 2.65625 -0.734375 C 2.101562 -1.359375 1.828125 -2.3125 1.828125 -3.59375 L 1.828125 -8.09375 L 0.515625 -8.09375 L 0.515625 -9.625 L 2.1875 -10.8125 L 3.15625 -13.109375 L 5.625 -13.109375 L 5.625 -10.921875 L 8.3125 -10.921875 L 8.3125 -8.09375 L 5.625 -8.09375 L 5.625 -3.84375 C 5.625 -3.132812 5.96875 -2.78125 6.65625 -2.78125 Z M 6.65625 -2.78125 "/></g></g></g><g fill="#023281" fill-opacity="1"><g transform="translate(228.249887, 25.534539)"><g><path d="M 11.734375 -5.484375 C 11.734375 -3.691406 11.25 -2.296875 10.28125 -1.296875 C 9.320312 -0.304688 7.976562 0.1875 6.25 0.1875 C 4.59375 0.1875 3.273438 -0.320312 2.296875 -1.34375 C 1.316406 -2.363281 0.828125 -3.742188 0.828125 -5.484375 C 0.828125 -7.265625 1.304688 -8.644531 2.265625 -9.625 C 3.222656 -10.613281 4.570312 -11.109375 6.3125 -11.109375 C 7.382812 -11.109375 8.332031 -10.878906 9.15625 -10.421875 C 9.976562 -9.960938 10.613281 -9.304688 11.0625 -8.453125 C 11.507812 -7.609375 11.734375 -6.617188 11.734375 -5.484375 Z M 4.65625 -5.484375 C 4.65625 -4.546875 4.78125 -3.832031 5.03125 -3.34375 C 5.28125 -2.851562 5.703125 -2.609375 6.296875 -2.609375 C 6.878906 -2.609375 7.289062 -2.851562 7.53125 -3.34375 C 7.769531 -3.832031 7.890625 -4.546875 7.890625 -5.484375 C 7.890625 -6.410156 7.765625 -7.113281 7.515625 -7.59375 C 7.273438 -8.070312 6.859375 -8.3125 6.265625 -8.3125 C 5.691406 -8.3125 5.28125 -8.070312 5.03125 -7.59375 C 4.78125 -7.125 4.65625 -6.421875 4.65625 -5.484375 Z M 4.65625 -5.484375 "/></g></g></g><g fill="#023281" fill-opacity="1"><g transform="translate(240.821417, 25.534539)"><g><path d="M 7.890625 -11.109375 C 8.222656 -11.109375 8.535156 -11.082031 8.828125 -11.03125 L 9.03125 -11 L 8.703125 -7.4375 C 8.390625 -7.507812 7.960938 -7.546875 7.421875 -7.546875 C 6.597656 -7.546875 6 -7.359375 5.625 -6.984375 C 5.25 -6.609375 5.0625 -6.070312 5.0625 -5.375 L 5.0625 0 L 1.296875 0 L 1.296875 -10.921875 L 4.109375 -10.921875 L 4.6875 -9.171875 L 4.875 -9.171875 C 5.1875 -9.753906 5.625 -10.222656 6.1875 -10.578125 C 6.75 -10.929688 7.316406 -11.109375 7.890625 -11.109375 Z M 7.890625 -11.109375 "/></g></g></g><g fill="#023281" fill-opacity="1"><g transform="translate(250.07907, 25.534539)"><g/></g></g><g fill="#023281" fill-opacity="1"><g transform="translate(255.20402, 25.534539)"><g><path d="M 4.6875 0.1875 C 3.914062 0.1875 3.238281 -0.03125 2.65625 -0.46875 C 2.070312 -0.914062 1.617188 -1.566406 1.296875 -2.421875 C 0.984375 -3.285156 0.828125 -4.289062 0.828125 -5.4375 C 0.828125 -7.21875 1.179688 -8.609375 1.890625 -9.609375 C 2.609375 -10.609375 3.59375 -11.109375 4.84375 -11.109375 C 5.445312 -11.109375 5.976562 -10.984375 6.4375 -10.734375 C 6.894531 -10.492188 7.316406 -10.085938 7.703125 -9.515625 L 7.78125 -9.515625 C 7.65625 -10.367188 7.59375 -11.222656 7.59375 -12.078125 L 7.59375 -15 L 11.390625 -15 L 11.390625 0 L 8.546875 0 L 7.734375 -1.375 L 7.59375 -1.375 C 6.945312 -0.332031 5.976562 0.1875 4.6875 0.1875 Z M 6.234375 -2.78125 C 6.835938 -2.78125 7.257812 -2.96875 7.5 -3.34375 C 7.75 -3.726562 7.882812 -4.316406 7.90625 -5.109375 L 7.90625 -5.40625 C 7.90625 -6.363281 7.765625 -7.046875 7.484375 -7.453125 C 7.210938 -7.867188 6.785156 -8.078125 6.203125 -8.078125 C 5.703125 -8.078125 5.316406 -7.84375 5.046875 -7.375 C 4.773438 -6.90625 4.640625 -6.242188 4.640625 -5.390625 C 4.640625 -4.535156 4.773438 -3.882812 5.046875 -3.4375 C 5.328125 -3 5.722656 -2.78125 6.234375 -2.78125 Z M 6.234375 -2.78125 "/></g></g></g><g fill="#023281" fill-opacity="1"><g transform="translate(267.891151, 25.534539)"><g><path d="M 6.578125 0.1875 C 4.753906 0.1875 3.335938 -0.289062 2.328125 -1.25 C 1.328125 -2.21875 0.828125 -3.597656 0.828125 -5.390625 C 0.828125 -7.234375 1.289062 -8.644531 2.21875 -9.625 C 3.15625 -10.613281 4.488281 -11.109375 6.21875 -11.109375 C 7.863281 -11.109375 9.132812 -10.675781 10.03125 -9.8125 C 10.925781 -8.957031 11.375 -7.726562 11.375 -6.125 L 11.375 -4.4375 L 4.640625 -4.4375 C 4.660156 -3.832031 4.878906 -3.351562 5.296875 -3 C 5.722656 -2.65625 6.300781 -2.484375 7.03125 -2.484375 C 7.6875 -2.484375 8.289062 -2.546875 8.84375 -2.671875 C 9.40625 -2.796875 10.007812 -3.007812 10.65625 -3.3125 L 10.65625 -0.609375 C 10.0625 -0.304688 9.445312 -0.0976562 8.8125 0.015625 C 8.1875 0.128906 7.441406 0.1875 6.578125 0.1875 Z M 6.34375 -8.546875 C 5.90625 -8.546875 5.535156 -8.40625 5.234375 -8.125 C 4.929688 -7.84375 4.757812 -7.40625 4.71875 -6.8125 L 7.953125 -6.8125 C 7.941406 -7.34375 7.789062 -7.765625 7.5 -8.078125 C 7.21875 -8.390625 6.832031 -8.546875 6.34375 -8.546875 Z M 6.34375 -8.546875 "/></g></g></g><g fill="#023281" fill-opacity="1"><g transform="translate(477.758228, 25.534539)"><g><path d="M 6.265625 0.1875 C 4.484375 0.1875 3.128906 -0.289062 2.203125 -1.25 C 1.285156 -2.21875 0.828125 -3.601562 0.828125 -5.40625 C 0.828125 -7.21875 1.320312 -8.617188 2.3125 -9.609375 C 3.3125 -10.609375 4.734375 -11.109375 6.578125 -11.109375 C 7.835938 -11.109375 9.023438 -10.832031 10.140625 -10.28125 L 9.03125 -7.5 C 8.582031 -7.695312 8.164062 -7.851562 7.78125 -7.96875 C 7.394531 -8.09375 6.992188 -8.15625 6.578125 -8.15625 C 5.960938 -8.15625 5.488281 -7.914062 5.15625 -7.4375 C 4.820312 -6.957031 4.65625 -6.285156 4.65625 -5.421875 C 4.65625 -3.671875 5.300781 -2.796875 6.59375 -2.796875 C 7.695312 -2.796875 8.753906 -3.117188 9.765625 -3.765625 L 9.765625 -0.765625 C 8.796875 -0.128906 7.628906 0.1875 6.265625 0.1875 Z M 6.265625 0.1875 "/></g></g></g><g fill="#023281" fill-opacity="1"><g transform="translate(488.393463, 25.534539)"><g><path d="M 11.734375 -5.484375 C 11.734375 -3.691406 11.25 -2.296875 10.28125 -1.296875 C 9.320312 -0.304688 7.976562 0.1875 6.25 0.1875 C 4.59375 0.1875 3.273438 -0.320312 2.296875 -1.34375 C 1.316406 -2.363281 0.828125 -3.742188 0.828125 -5.484375 C 0.828125 -7.265625 1.304688 -8.644531 2.265625 -9.625 C 3.222656 -10.613281 4.570312 -11.109375 6.3125 -11.109375 C 7.382812 -11.109375 8.332031 -10.878906 9.15625 -10.421875 C 9.976562 -9.960938 10.613281 -9.304688 11.0625 -8.453125 C 11.507812 -7.609375 11.734375 -6.617188 11.734375 -5.484375 Z M 4.65625 -5.484375 C 4.65625 -4.546875 4.78125 -3.832031 5.03125 -3.34375 C 5.28125 -2.851562 5.703125 -2.609375 6.296875 -2.609375 C 6.878906 -2.609375 7.289062 -2.851562 7.53125 -3.34375 C 7.769531 -3.832031 7.890625 -4.546875 7.890625 -5.484375 C 7.890625 -6.410156 7.765625 -7.113281 7.515625 -7.59375 C 7.273438 -8.070312 6.859375 -8.3125 6.265625 -8.3125 C 5.691406 -8.3125 5.28125 -8.070312 5.03125 -7.59375 C 4.78125 -7.125 4.65625 -6.421875 4.65625 -5.484375 Z M 4.65625 -5.484375 "/></g></g></g><g fill="#023281" fill-opacity="1"><g transform="translate(500.965004, 25.534539)"><g><path d="M 14.703125 0 L 14.703125 -5.9375 C 14.703125 -6.675781 14.597656 -7.226562 14.390625 -7.59375 C 14.191406 -7.96875 13.875 -8.15625 13.4375 -8.15625 C 12.863281 -8.15625 12.441406 -7.90625 12.171875 -7.40625 C 11.898438 -6.914062 11.765625 -6.144531 11.765625 -5.09375 L 11.765625 0 L 7.984375 0 L 7.984375 -5.9375 C 7.984375 -6.675781 7.882812 -7.226562 7.6875 -7.59375 C 7.5 -7.96875 7.191406 -8.15625 6.765625 -8.15625 C 6.171875 -8.15625 5.738281 -7.890625 5.46875 -7.359375 C 5.195312 -6.835938 5.0625 -5.976562 5.0625 -4.78125 L 5.0625 0 L 1.296875 0 L 1.296875 -10.921875 L 4.140625 -10.921875 L 4.609375 -9.5625 L 4.84375 -9.5625 C 5.125 -10.0625 5.539062 -10.441406 6.09375 -10.703125 C 6.644531 -10.972656 7.269531 -11.109375 7.96875 -11.109375 C 9.539062 -11.109375 10.644531 -10.628906 11.28125 -9.671875 L 11.578125 -9.671875 C 11.890625 -10.117188 12.316406 -10.46875 12.859375 -10.71875 C 13.410156 -10.976562 14.019531 -11.109375 14.6875 -11.109375 C 15.976562 -11.109375 16.929688 -10.773438 17.546875 -10.109375 C 18.160156 -9.453125 18.46875 -8.453125 18.46875 -7.109375 L 18.46875 0 Z M 14.703125 0 "/></g></g></g><g fill="#023281" fill-opacity="1"><g transform="translate(520.694136, 25.534539)"><g/></g></g><g fill="#023281" fill-opacity="1"><g transform="translate(525.819086, 25.534539)"><g><path d="M 8.421875 0 L 7.703125 -1.453125 L 7.625 -1.453125 C 7.113281 -0.816406 6.59375 -0.382812 6.0625 -0.15625 C 5.539062 0.0703125 4.863281 0.1875 4.03125 0.1875 C 3 0.1875 2.1875 -0.117188 1.59375 -0.734375 C 1.007812 -1.347656 0.71875 -2.210938 0.71875 -3.328125 C 0.71875 -4.492188 1.117188 -5.359375 1.921875 -5.921875 C 2.734375 -6.492188 3.90625 -6.816406 5.4375 -6.890625 L 7.265625 -6.953125 L 7.265625 -7.109375 C 7.265625 -8.003906 6.820312 -8.453125 5.9375 -8.453125 C 5.132812 -8.453125 4.125 -8.179688 2.90625 -7.640625 L 1.8125 -10.125 C 3.082031 -10.78125 4.6875 -11.109375 6.625 -11.109375 C 8.03125 -11.109375 9.113281 -10.757812 9.875 -10.0625 C 10.644531 -9.375 11.03125 -8.40625 11.03125 -7.15625 L 11.03125 0 Z M 5.625 -2.46875 C 6.082031 -2.46875 6.472656 -2.609375 6.796875 -2.890625 C 7.117188 -3.179688 7.28125 -3.5625 7.28125 -4.03125 L 7.28125 -4.875 L 6.421875 -4.84375 C 5.179688 -4.789062 4.5625 -4.332031 4.5625 -3.46875 C 4.5625 -2.800781 4.914062 -2.46875 5.625 -2.46875 Z M 5.625 -2.46875 "/></g></g></g><g fill="#023281" fill-opacity="1"><g transform="translate(538.11126, 25.534539)"><g><path d="M 6.65625 -2.78125 C 7.15625 -2.78125 7.757812 -2.90625 8.46875 -3.15625 L 8.46875 -0.421875 C 7.957031 -0.203125 7.472656 -0.046875 7.015625 0.046875 C 6.554688 0.140625 6.019531 0.1875 5.40625 0.1875 C 4.132812 0.1875 3.21875 -0.117188 2.65625 -0.734375 C 2.101562 -1.359375 1.828125 -2.3125 1.828125 -3.59375 L 1.828125 -8.09375 L 0.515625 -8.09375 L 0.515625 -9.625 L 2.1875 -10.8125 L 3.15625 -13.109375 L 5.625 -13.109375 L 5.625 -10.921875 L 8.3125 -10.921875 L 8.3125 -8.09375 L 5.625 -8.09375 L 5.625 -3.84375 C 5.625 -3.132812 5.96875 -2.78125 6.65625 -2.78125 Z M 6.65625 -2.78125 "/></g></g></g><g fill="#023281" fill-opacity="1"><g transform="translate(547.18589, 25.534539)"><g><path d="M 6.578125 0.1875 C 4.753906 0.1875 3.335938 -0.289062 2.328125 -1.25 C 1.328125 -2.21875 0.828125 -3.597656 0.828125 -5.390625 C 0.828125 -7.234375 1.289062 -8.644531 2.21875 -9.625 C 3.15625 -10.613281 4.488281 -11.109375 6.21875 -11.109375 C 7.863281 -11.109375 9.132812 -10.675781 10.03125 -9.8125 C 10.925781 -8.957031 11.375 -7.726562 11.375 -6.125 L 11.375 -4.4375 L 4.640625 -4.4375 C 4.660156 -3.832031 4.878906 -3.351562 5.296875 -3 C 5.722656 -2.65625 6.300781 -2.484375 7.03125 -2.484375 C 7.6875 -2.484375 8.289062 -2.546875 8.84375 -2.671875 C 9.40625 -2.796875 10.007812 -3.007812 10.65625 -3.3125 L 10.65625 -0.609375 C 10.0625 -0.304688 9.445312 -0.0976562 8.8125 0.015625 C 8.1875 0.128906 7.441406 0.1875 6.578125 0.1875 Z M 6.34375 -8.546875 C 5.90625 -8.546875 5.535156 -8.40625 5.234375 -8.125 C 4.929688 -7.84375 4.757812 -7.40625 4.71875 -6.8125 L 7.953125 -6.8125 C 7.941406 -7.34375 7.789062 -7.765625 7.5 -8.078125 C 7.21875 -8.390625 6.832031 -8.546875 6.34375 -8.546875 Z M 4.546875 -11.953125 L 4.546875 -12.234375 C 5.535156 -13.296875 6.160156 -13.976562 6.421875 -14.28125 C 6.691406 -14.59375 6.914062 -14.875 7.09375 -15.125 L 11.21875 -15.125 L 11.21875 -14.921875 C 10.695312 -14.503906 9.988281 -13.976562 9.09375 -13.34375 C 8.195312 -12.707031 7.515625 -12.242188 7.046875 -11.953125 Z M 4.546875 -11.953125 "/></g></g></g><g fill="#023281" fill-opacity="1"><g transform="translate(559.38173, 25.534539)"><g/></g></g><g fill="#023281" fill-opacity="1"><g transform="translate(564.50668, 25.534539)"><g><path d="M 6.390625 -9.234375 C 7.203125 -9.234375 7.929688 -9.046875 8.578125 -8.671875 C 9.234375 -8.296875 9.742188 -7.765625 10.109375 -7.078125 C 10.472656 -6.390625 10.65625 -5.59375 10.65625 -4.6875 C 10.65625 -3.113281 10.179688 -1.90625 9.234375 -1.0625 C 8.285156 -0.226562 6.851562 0.1875 4.9375 0.1875 C 3.289062 0.1875 1.945312 -0.0625 0.90625 -0.5625 L 0.90625 -3.6875 C 1.46875 -3.4375 2.097656 -3.222656 2.796875 -3.046875 C 3.503906 -2.878906 4.109375 -2.796875 4.609375 -2.796875 C 5.316406 -2.796875 5.859375 -2.945312 6.234375 -3.25 C 6.617188 -3.550781 6.8125 -3.992188 6.8125 -4.578125 C 6.8125 -5.117188 6.617188 -5.539062 6.234375 -5.84375 C 5.847656 -6.144531 5.265625 -6.296875 4.484375 -6.296875 C 3.878906 -6.296875 3.234375 -6.179688 2.546875 -5.953125 L 1.140625 -6.65625 L 1.671875 -14.09375 L 9.71875 -14.09375 L 9.71875 -10.921875 L 4.921875 -10.921875 L 4.734375 -9.0625 C 5.242188 -9.15625 5.601562 -9.207031 5.8125 -9.21875 C 6.019531 -9.226562 6.210938 -9.234375 6.390625 -9.234375 Z M 6.390625 -9.234375 "/></g></g></g><g fill="#023281" fill-opacity="1"><g transform="translate(576.066718, 25.534539)"><g><path d="M 10.875 -7.03125 C 10.875 -4.53125 10.453125 -2.703125 9.609375 -1.546875 C 8.773438 -0.390625 7.5 0.1875 5.78125 0.1875 C 4.09375 0.1875 2.820312 -0.414062 1.96875 -1.625 C 1.113281 -2.832031 0.6875 -4.632812 0.6875 -7.03125 C 0.6875 -9.53125 1.101562 -11.363281 1.9375 -12.53125 C 2.78125 -13.707031 4.0625 -14.296875 5.78125 -14.296875 C 7.457031 -14.296875 8.722656 -13.6875 9.578125 -12.46875 C 10.441406 -11.25 10.875 -9.4375 10.875 -7.03125 Z M 4.484375 -7.03125 C 4.484375 -5.4375 4.582031 -4.335938 4.78125 -3.734375 C 4.976562 -3.140625 5.3125 -2.84375 5.78125 -2.84375 C 6.257812 -2.84375 6.59375 -3.148438 6.78125 -3.765625 C 6.976562 -4.378906 7.078125 -5.46875 7.078125 -7.03125 C 7.078125 -8.582031 6.976562 -9.671875 6.78125 -10.296875 C 6.582031 -10.929688 6.25 -11.25 5.78125 -11.25 C 5.3125 -11.25 4.976562 -10.945312 4.78125 -10.34375 C 4.582031 -9.738281 4.484375 -8.632812 4.484375 -7.03125 Z M 4.484375 -7.03125 "/></g></g></g><g fill="#023281" fill-opacity="1"><g transform="translate(587.626756, 25.534539)"><g><path d="M 3.25 -9.84375 C 3.25 -9.101562 3.3125 -8.566406 3.4375 -8.234375 C 3.5625 -7.910156 3.742188 -7.75 3.984375 -7.75 C 4.234375 -7.75 4.414062 -7.910156 4.53125 -8.234375 C 4.65625 -8.554688 4.71875 -9.09375 4.71875 -9.84375 C 4.71875 -10.582031 4.65625 -11.113281 4.53125 -11.4375 C 4.414062 -11.769531 4.234375 -11.9375 3.984375 -11.9375 C 3.734375 -11.9375 3.546875 -11.769531 3.421875 -11.4375 C 3.304688 -11.101562 3.25 -10.570312 3.25 -9.84375 Z M 7.625 -9.890625 C 7.625 -8.472656 7.304688 -7.375 6.671875 -6.59375 C 6.035156 -5.820312 5.128906 -5.4375 3.953125 -5.4375 C 2.847656 -5.4375 1.972656 -5.835938 1.328125 -6.640625 C 0.679688 -7.441406 0.359375 -8.523438 0.359375 -9.890625 C 0.359375 -11.296875 0.671875 -12.378906 1.296875 -13.140625 C 1.929688 -13.910156 2.816406 -14.296875 3.953125 -14.296875 C 5.078125 -14.296875 5.96875 -13.898438 6.625 -13.109375 C 7.289062 -12.316406 7.625 -11.242188 7.625 -9.890625 Z M 14.640625 -14.09375 L 6.828125 0 L 3.96875 0 L 11.78125 -14.09375 Z M 13.96875 -4.234375 C 13.96875 -3.492188 14.03125 -2.960938 14.15625 -2.640625 C 14.28125 -2.316406 14.460938 -2.15625 14.703125 -2.15625 C 14.984375 -2.15625 15.175781 -2.34375 15.28125 -2.71875 C 15.382812 -3.09375 15.4375 -3.597656 15.4375 -4.234375 C 15.4375 -4.878906 15.382812 -5.390625 15.28125 -5.765625 C 15.175781 -6.140625 14.984375 -6.328125 14.703125 -6.328125 C 14.453125 -6.328125 14.265625 -6.160156 14.140625 -5.828125 C 14.023438 -5.492188 13.96875 -4.960938 13.96875 -4.234375 Z M 18.34375 -4.28125 C 18.34375 -2.875 18.019531 -1.78125 17.375 -1 C 16.738281 -0.226562 15.835938 0.15625 14.671875 0.15625 C 13.566406 0.15625 12.691406 -0.242188 12.046875 -1.046875 C 11.398438 -1.847656 11.078125 -2.925781 11.078125 -4.28125 C 11.078125 -5.6875 11.390625 -6.769531 12.015625 -7.53125 C 12.640625 -8.300781 13.523438 -8.6875 14.671875 -8.6875 C 15.796875 -8.6875 16.6875 -8.289062 17.34375 -7.5 C 18.007812 -6.707031 18.34375 -5.632812 18.34375 -4.28125 Z M 18.34375 -4.28125 "/></g></g></g><g fill="#023281" fill-opacity="1"><g transform="translate(606.334751, 25.534539)"><g/></g></g><g fill="#023281" fill-opacity="1"><g transform="translate(611.459701, 25.534539)"><g><path d="M 4.6875 0.1875 C 3.914062 0.1875 3.238281 -0.03125 2.65625 -0.46875 C 2.070312 -0.914062 1.617188 -1.566406 1.296875 -2.421875 C 0.984375 -3.285156 0.828125 -4.289062 0.828125 -5.4375 C 0.828125 -7.21875 1.179688 -8.609375 1.890625 -9.609375 C 2.609375 -10.609375 3.59375 -11.109375 4.84375 -11.109375 C 5.445312 -11.109375 5.976562 -10.984375 6.4375 -10.734375 C 6.894531 -10.492188 7.316406 -10.085938 7.703125 -9.515625 L 7.78125 -9.515625 C 7.65625 -10.367188 7.59375 -11.222656 7.59375 -12.078125 L 7.59375 -15 L 11.390625 -15 L 11.390625 0 L 8.546875 0 L 7.734375 -1.375 L 7.59375 -1.375 C 6.945312 -0.332031 5.976562 0.1875 4.6875 0.1875 Z M 6.234375 -2.78125 C 6.835938 -2.78125 7.257812 -2.96875 7.5 -3.34375 C 7.75 -3.726562 7.882812 -4.316406 7.90625 -5.109375 L 7.90625 -5.40625 C 7.90625 -6.363281 7.765625 -7.046875 7.484375 -7.453125 C 7.210938 -7.867188 6.785156 -8.078125 6.203125 -8.078125 C 5.703125 -8.078125 5.316406 -7.84375 5.046875 -7.375 C 4.773438 -6.90625 4.640625 -6.242188 4.640625 -5.390625 C 4.640625 -4.535156 4.773438 -3.882812 5.046875 -3.4375 C 5.328125 -3 5.722656 -2.78125 6.234375 -2.78125 Z M 6.234375 -2.78125 "/></g></g></g><g fill="#023281" fill-opacity="1"><g transform="translate(624.146843, 25.534539)"><g><path d="M 6.578125 0.1875 C 4.753906 0.1875 3.335938 -0.289062 2.328125 -1.25 C 1.328125 -2.21875 0.828125 -3.597656 0.828125 -5.390625 C 0.828125 -7.234375 1.289062 -8.644531 2.21875 -9.625 C 3.15625 -10.613281 4.488281 -11.109375 6.21875 -11.109375 C 7.863281 -11.109375 9.132812 -10.675781 10.03125 -9.8125 C 10.925781 -8.957031 11.375 -7.726562 11.375 -6.125 L 11.375 -4.4375 L 4.640625 -4.4375 C 4.660156 -3.832031 4.878906 -3.351562 5.296875 -3 C 5.722656 -2.65625 6.300781 -2.484375 7.03125 -2.484375 C 7.6875 -2.484375 8.289062 -2.546875 8.84375 -2.671875 C 9.40625 -2.796875 10.007812 -3.007812 10.65625 -3.3125 L 10.65625 -0.609375 C 10.0625 -0.304688 9.445312 -0.0976562 8.8125 0.015625 C 8.1875 0.128906 7.441406 0.1875 6.578125 0.1875 Z M 6.34375 -8.546875 C 5.90625 -8.546875 5.535156 -8.40625 5.234375 -8.125 C 4.929688 -7.84375 4.757812 -7.40625 4.71875 -6.8125 L 7.953125 -6.8125 C 7.941406 -7.34375 7.789062 -7.765625 7.5 -8.078125 C 7.21875 -8.390625 6.832031 -8.546875 6.34375 -8.546875 Z M 6.34375 -8.546875 "/></g></g></g><g fill="#023281" fill-opacity="1"><g transform="translate(636.342683, 25.534539)"><g/></g></g><g fill="#023281" fill-opacity="1"><g transform="translate(641.467633, 25.534539)"><g><path d="M 4.6875 0.1875 C 3.914062 0.1875 3.238281 -0.03125 2.65625 -0.46875 C 2.070312 -0.914062 1.617188 -1.566406 1.296875 -2.421875 C 0.984375 -3.285156 0.828125 -4.289062 0.828125 -5.4375 C 0.828125 -7.21875 1.179688 -8.609375 1.890625 -9.609375 C 2.609375 -10.609375 3.59375 -11.109375 4.84375 -11.109375 C 5.445312 -11.109375 5.976562 -10.984375 6.4375 -10.734375 C 6.894531 -10.492188 7.316406 -10.085938 7.703125 -9.515625 L 7.78125 -9.515625 C 7.65625 -10.367188 7.59375 -11.222656 7.59375 -12.078125 L 7.59375 -15 L 11.390625 -15 L 11.390625 0 L 8.546875 0 L 7.734375 -1.375 L 7.59375 -1.375 C 6.945312 -0.332031 5.976562 0.1875 4.6875 0.1875 Z M 6.234375 -2.78125 C 6.835938 -2.78125 7.257812 -2.96875 7.5 -3.34375 C 7.75 -3.726562 7.882812 -4.316406 7.90625 -5.109375 L 7.90625 -5.40625 C 7.90625 -6.363281 7.765625 -7.046875 7.484375 -7.453125 C 7.210938 -7.867188 6.785156 -8.078125 6.203125 -8.078125 C 5.703125 -8.078125 5.316406 -7.84375 5.046875 -7.375 C 4.773438 -6.90625 4.640625 -6.242188 4.640625 -5.390625 C 4.640625 -4.535156 4.773438 -3.882812 5.046875 -3.4375 C 5.328125 -3 5.722656 -2.78125 6.234375 -2.78125 Z M 6.234375 -2.78125 "/></g></g></g><g fill="#023281" fill-opacity="1"><g transform="translate(654.154775, 25.534539)"><g><path d="M 6.578125 0.1875 C 4.753906 0.1875 3.335938 -0.289062 2.328125 -1.25 C 1.328125 -2.21875 0.828125 -3.597656 0.828125 -5.390625 C 0.828125 -7.234375 1.289062 -8.644531 2.21875 -9.625 C 3.15625 -10.613281 4.488281 -11.109375 6.21875 -11.109375 C 7.863281 -11.109375 9.132812 -10.675781 10.03125 -9.8125 C 10.925781 -8.957031 11.375 -7.726562 11.375 -6.125 L 11.375 -4.4375 L 4.640625 -4.4375 C 4.660156 -3.832031 4.878906 -3.351562 5.296875 -3 C 5.722656 -2.65625 6.300781 -2.484375 7.03125 -2.484375 C 7.6875 -2.484375 8.289062 -2.546875 8.84375 -2.671875 C 9.40625 -2.796875 10.007812 -3.007812 10.65625 -3.3125 L 10.65625 -0.609375 C 10.0625 -0.304688 9.445312 -0.0976562 8.8125 0.015625 C 8.1875 0.128906 7.441406 0.1875 6.578125 0.1875 Z M 6.34375 -8.546875 C 5.90625 -8.546875 5.535156 -8.40625 5.234375 -8.125 C 4.929688 -7.84375 4.757812 -7.40625 4.71875 -6.8125 L 7.953125 -6.8125 C 7.941406 -7.34375 7.789062 -7.765625 7.5 -8.078125 C 7.21875 -8.390625 6.832031 -8.546875 6.34375 -8.546875 Z M 6.34375 -8.546875 "/></g></g></g><g fill="#023281" fill-opacity="1"><g transform="translate(666.350615, 25.534539)"><g><path d="M 9.734375 -3.359375 C 9.734375 -2.179688 9.332031 -1.296875 8.53125 -0.703125 C 7.738281 -0.109375 6.597656 0.1875 5.109375 0.1875 C 4.296875 0.1875 3.585938 0.144531 2.984375 0.0625 C 2.390625 -0.0195312 1.785156 -0.179688 1.171875 -0.421875 L 1.171875 -3.4375 C 1.753906 -3.175781 2.394531 -2.960938 3.09375 -2.796875 C 3.789062 -2.628906 4.410156 -2.546875 4.953125 -2.546875 C 5.765625 -2.546875 6.171875 -2.734375 6.171875 -3.109375 C 6.171875 -3.296875 6.054688 -3.460938 5.828125 -3.609375 C 5.609375 -3.765625 4.945312 -4.0625 3.84375 -4.5 C 2.84375 -4.90625 2.140625 -5.367188 1.734375 -5.890625 C 1.335938 -6.421875 1.140625 -7.085938 1.140625 -7.890625 C 1.140625 -8.910156 1.53125 -9.703125 2.3125 -10.265625 C 3.101562 -10.828125 4.210938 -11.109375 5.640625 -11.109375 C 6.359375 -11.109375 7.035156 -11.03125 7.671875 -10.875 C 8.304688 -10.71875 8.960938 -10.488281 9.640625 -10.1875 L 8.625 -7.75 C 8.125 -7.976562 7.59375 -8.171875 7.03125 -8.328125 C 6.476562 -8.484375 6.023438 -8.5625 5.671875 -8.5625 C 5.046875 -8.5625 4.734375 -8.410156 4.734375 -8.109375 C 4.734375 -7.921875 4.84375 -7.757812 5.0625 -7.625 C 5.28125 -7.5 5.898438 -7.234375 6.921875 -6.828125 C 7.691406 -6.515625 8.265625 -6.207031 8.640625 -5.90625 C 9.015625 -5.601562 9.289062 -5.25 9.46875 -4.84375 C 9.644531 -4.4375 9.734375 -3.941406 9.734375 -3.359375 Z M 9.734375 -3.359375 "/></g></g></g><g fill="#023281" fill-opacity="1"><g transform="translate(676.870239, 25.534539)"><g><path d="M 6.265625 0.1875 C 4.484375 0.1875 3.128906 -0.289062 2.203125 -1.25 C 1.285156 -2.21875 0.828125 -3.601562 0.828125 -5.40625 C 0.828125 -7.21875 1.320312 -8.617188 2.3125 -9.609375 C 3.3125 -10.609375 4.734375 -11.109375 6.578125 -11.109375 C 7.835938 -11.109375 9.023438 -10.832031 10.140625 -10.28125 L 9.03125 -7.5 C 8.582031 -7.695312 8.164062 -7.851562 7.78125 -7.96875 C 7.394531 -8.09375 6.992188 -8.15625 6.578125 -8.15625 C 5.960938 -8.15625 5.488281 -7.914062 5.15625 -7.4375 C 4.820312 -6.957031 4.65625 -6.285156 4.65625 -5.421875 C 4.65625 -3.671875 5.300781 -2.796875 6.59375 -2.796875 C 7.695312 -2.796875 8.753906 -3.117188 9.765625 -3.765625 L 9.765625 -0.765625 C 8.796875 -0.128906 7.628906 0.1875 6.265625 0.1875 Z M 6.265625 0.1875 "/></g></g></g><g fill="#023281" fill-opacity="1"><g transform="translate(687.505474, 25.534539)"><g><path d="M 11.734375 -5.484375 C 11.734375 -3.691406 11.25 -2.296875 10.28125 -1.296875 C 9.320312 -0.304688 7.976562 0.1875 6.25 0.1875 C 4.59375 0.1875 3.273438 -0.320312 2.296875 -1.34375 C 1.316406 -2.363281 0.828125 -3.742188 0.828125 -5.484375 C 0.828125 -7.265625 1.304688 -8.644531 2.265625 -9.625 C 3.222656 -10.613281 4.570312 -11.109375 6.3125 -11.109375 C 7.382812 -11.109375 8.332031 -10.878906 9.15625 -10.421875 C 9.976562 -9.960938 10.613281 -9.304688 11.0625 -8.453125 C 11.507812 -7.609375 11.734375 -6.617188 11.734375 -5.484375 Z M 4.65625 -5.484375 C 4.65625 -4.546875 4.78125 -3.832031 5.03125 -3.34375 C 5.28125 -2.851562 5.703125 -2.609375 6.296875 -2.609375 C 6.878906 -2.609375 7.289062 -2.851562 7.53125 -3.34375 C 7.769531 -3.832031 7.890625 -4.546875 7.890625 -5.484375 C 7.890625 -6.410156 7.765625 -7.113281 7.515625 -7.59375 C 7.273438 -8.070312 6.859375 -8.3125 6.265625 -8.3125 C 5.691406 -8.3125 5.28125 -8.070312 5.03125 -7.59375 C 4.78125 -7.125 4.65625 -6.421875 4.65625 -5.484375 Z M 4.65625 -5.484375 "/></g></g></g><g fill="#023281" fill-opacity="1"><g transform="translate(700.077004, 25.534539)"><g><path d="M 8.1875 0 L 8.1875 -5.953125 C 8.1875 -6.679688 8.082031 -7.226562 7.875 -7.59375 C 7.664062 -7.96875 7.332031 -8.15625 6.875 -8.15625 C 6.238281 -8.15625 5.773438 -7.898438 5.484375 -7.390625 C 5.203125 -6.878906 5.0625 -6.007812 5.0625 -4.78125 L 5.0625 0 L 1.296875 0 L 1.296875 -10.921875 L 4.140625 -10.921875 L 4.609375 -9.5625 L 4.84375 -9.5625 C 5.15625 -10.082031 5.597656 -10.46875 6.171875 -10.71875 C 6.742188 -10.976562 7.394531 -11.109375 8.125 -11.109375 C 9.332031 -11.109375 10.269531 -10.757812 10.9375 -10.0625 C 11.613281 -9.363281 11.953125 -8.378906 11.953125 -7.109375 L 11.953125 0 Z M 8.1875 0 "/></g></g></g><g fill="#023281" fill-opacity="1"><g transform="translate(713.293981, 25.534539)"><g><path d="M 6.65625 -2.78125 C 7.15625 -2.78125 7.757812 -2.90625 8.46875 -3.15625 L 8.46875 -0.421875 C 7.957031 -0.203125 7.472656 -0.046875 7.015625 0.046875 C 6.554688 0.140625 6.019531 0.1875 5.40625 0.1875 C 4.132812 0.1875 3.21875 -0.117188 2.65625 -0.734375 C 2.101562 -1.359375 1.828125 -2.3125 1.828125 -3.59375 L 1.828125 -8.09375 L 0.515625 -8.09375 L 0.515625 -9.625 L 2.1875 -10.8125 L 3.15625 -13.109375 L 5.625 -13.109375 L 5.625 -10.921875 L 8.3125 -10.921875 L 8.3125 -8.09375 L 5.625 -8.09375 L 5.625 -3.84375 C 5.625 -3.132812 5.96875 -2.78125 6.65625 -2.78125 Z M 6.65625 -2.78125 "/></g></g></g><g fill="#023281" fill-opacity="1"><g transform="translate(722.368611, 25.534539)"><g><path d="M 11.734375 -5.484375 C 11.734375 -3.691406 11.25 -2.296875 10.28125 -1.296875 C 9.320312 -0.304688 7.976562 0.1875 6.25 0.1875 C 4.59375 0.1875 3.273438 -0.320312 2.296875 -1.34375 C 1.316406 -2.363281 0.828125 -3.742188 0.828125 -5.484375 C 0.828125 -7.265625 1.304688 -8.644531 2.265625 -9.625 C 3.222656 -10.613281 4.570312 -11.109375 6.3125 -11.109375 C 7.382812 -11.109375 8.332031 -10.878906 9.15625 -10.421875 C 9.976562 -9.960938 10.613281 -9.304688 11.0625 -8.453125 C 11.507812 -7.609375 11.734375 -6.617188 11.734375 -5.484375 Z M 4.65625 -5.484375 C 4.65625 -4.546875 4.78125 -3.832031 5.03125 -3.34375 C 5.28125 -2.851562 5.703125 -2.609375 6.296875 -2.609375 C 6.878906 -2.609375 7.289062 -2.851562 7.53125 -3.34375 C 7.769531 -3.832031 7.890625 -4.546875 7.890625 -5.484375 C 7.890625 -6.410156 7.765625 -7.113281 7.515625 -7.59375 C 7.273438 -8.070312 6.859375 -8.3125 6.265625 -8.3125 C 5.691406 -8.3125 5.28125 -8.070312 5.03125 -7.59375 C 4.78125 -7.125 4.65625 -6.421875 4.65625 -5.484375 Z M 4.65625 -5.484375 "/></g></g></g><g clip-path="url(#08bd6d0874)"><g clip-path="url(#57e179beeb)"><path fill="#858585" d="M 463.671875 16.046875 L 469.863281 16.046875 L 469.863281 22.242188 L 463.671875 22.242188 Z M 463.671875 16.046875 " fill-opacity="1" fill-rule="nonzero"/></g></g></svg>